<svg id="Layer_1" height="512" viewBox="0 0 512 512" width="512" xmlns="http://www.w3.org/2000/svg"><g><g><path d="m384 496h-272c-17.673 0-32-14.327-32-32v-384c0-17.673 14.327-32 32-32h272c17.673 0 32 14.327 32 32v384c0 17.673-14.327 32-32 32z" fill="#a5c3dc"/></g><g><path d="m352 464h-272c-17.673 0-32-14.327-32-32v-336c31.242-31.242 48.758-48.758 80-80h224c17.673 0 32 14.327 32 32v384c0 17.673-14.327 32-32 32z" fill="#d7e6f0"/></g><g><g><path d="m184 320h-80c-4.418 0-8-3.582-8-8 0-4.418 3.582-8 8-8h80c4.418 0 8 3.582 8 8 0 4.418-3.582 8-8 8z" fill="#a5c3dc"/></g><g><path d="m328 352h-224c-4.418 0-8-3.582-8-8 0-4.418 3.582-8 8-8h224c4.418 0 8 3.582 8 8 0 4.418-3.582 8-8 8z" fill="#a5c3dc"/></g><g><path d="m328 384h-224c-4.418 0-8-3.582-8-8 0-4.418 3.582-8 8-8h224c4.418 0 8 3.582 8 8 0 4.418-3.582 8-8 8z" fill="#a5c3dc"/></g><g><path d="m328 416h-224c-4.418 0-8-3.582-8-8 0-4.418 3.582-8 8-8h224c4.418 0 8 3.582 8 8 0 4.418-3.582 8-8 8z" fill="#a5c3dc"/></g></g><g><path d="m128 16-79.505 80h47.505c17.673 0 32-14.327 32-32z" fill="#a5c3dc"/></g><g><g><path d="m224 176v-104c-11.166 0-32 0-32 0-57.44 0-104 46.56-104 104s46.56 104 104 104h32c57.44 0 104-46.56 104-104z" fill="#4182c3"/></g><g><path d="m240 56s-20.834 0-32 0v104h136c0-57.44-46.56-104-104-104z" fill="#faa019"/></g><g><path d="m296 176c0 57.44-46.56 104-104 104s-104-46.56-104-104 46.56-104 104-104v104z" fill="#64afe1"/></g><g><path d="m312 160h-104v-104c57.44 0 104 46.56 104 104z" fill="#ffd205"/></g></g><g><g><circle cx="384" cy="384" fill="#5faa46" r="112"/></g><g><path d="m288 400c-8.836 0-16-7.163-16-16 0-61.757 50.243-112 112-112 8.836 0 16 7.163 16 16s-7.164 16-16 16c-44.112 0-80 35.888-80 80 0 8.837-7.164 16-16 16z" fill="#91c83c"/></g><g><path d="m368 432c-4.095 0-8.189-1.563-11.313-4.687l-32-32c-6.249-6.248-6.249-16.379 0-22.627 6.248-6.248 16.379-6.248 22.627 0l20.686 20.687 52.687-52.687c6.248-6.248 16.379-6.248 22.627 0 6.249 6.248 6.249 16.379 0 22.627l-64 64c-3.125 3.125-7.219 4.687-11.314 4.687z" fill="#d7e6f0"/></g></g></g></svg>