<svg id="Flat_Gradient" viewBox="0 0 64 64" xmlns="http://www.w3.org/2000/svg" xmlns:xlink="http://www.w3.org/1999/xlink" data-name="Flat Gradient"><linearGradient id="linear-gradient" gradientUnits="userSpaceOnUse" x1="8.41" x2="55.59" y1="32" y2="32"><stop offset="0" stop-color="#a8e2ff"/><stop offset="1" stop-color="#2444cf"/></linearGradient><path d="m23 34.74c-.20179.21426-.66595.5534-.76.88 0 .18.51.66.76.89a4.15957 4.15957 0 0 1 1.23 1.64 4.26122 4.26122 0 0 1 -.03 2.1 3.19218 3.19218 0 0 0 -.09 1.1c.85866.41451 2.237.19394 3.09.88006.89482.59249 1.14679 2.01125 1.78993 2.68.87419-.24729 1.9504-1.15362 3.01008-1.12 1.13532-.03832 2.03025.88345 3.03 1.11006a3.66721 3.66721 0 0 0 .58-.97007 4.2512 4.2512 0 0 1 1.18-1.7 4.16928 4.16928 0 0 1 2-.61 3.25475 3.25475 0 0 0 1.1-.27 3.00005 3.00005 0 0 0 -.1-1.1 4.38269 4.38269 0 0 1 -.03-2.1 4.28034 4.28034 0 0 1 1.23999-1.64005c.24-.23.75-.71.75-.89-.08608-.3096-.54275-.65558-.75-.88a4.28054 4.28054 0 0 1 -1.24-1.64 4.38243 4.38243 0 0 1 .03-2.1 3.08172 3.08172 0 0 0 .1-1.11c-.84449-.38358-2.25013-.19866-3.1-.87009-.88238-.59342-1.146-2.01146-1.77992-2.68-.88151.2472-1.94534 1.15374-3.01009 1.12a4.41657 4.41657 0 0 1 -2.02-.68 3.17375 3.17375 0 0 0 -1.01-.43 3.41672 3.41672 0 0 0 -.58.97 4.27547 4.27547 0 0 1 -1.19 1.7 4.09932 4.09932 0 0 1 -1.99.61 3.62023 3.62023 0 0 0 -1.11.26 3.617 3.617 0 0 0 .10001 1.11009 4.261 4.261 0 0 1 .03 2.1 4.16019 4.16019 0 0 1 -1.23 1.64zm2.55-1.69a.9973.9973 0 0 1 .81-.68l3.28-.48 1.46-2.97a1.04916 1.04916 0 0 1 1.8 0l1.46 2.97 3.28.48a.99157.99157 0 0 1 .55 1.7l-2.37 2.31.56 3.27a.99866.99866 0 0 1 -.4.98.98722.98722 0 0 1 -1.05.07l-2.93-1.54-2.93 1.54a.99609.99609 0 0 1 -1.45-1.05l.56-3.27-2.37-2.31a.993.993 0 0 1 -.26-1.02zm2.81 13.75-2.3 5.31-.66-3.16a1.00906 1.00906 0 0 0 -1.5-.65l-2.76 1.69 2.84-6.56a15.022 15.022 0 0 1 2.05.42 3.3647 3.3647 0 0 1 .55.94 3.41291 3.41291 0 0 0 1.78 2.01zm11.66-3.37 2.84 6.56-2.76-1.69a.99873.99873 0 0 0 -.92-.06.97279.97279 0 0 0 -.58.71l-.66 3.16-2.3-5.31c1.36492-.42269 1.6025-2.08675 2.33-2.95a3.30845 3.30845 0 0 1 1.09-.25 6.93332 6.93332 0 0 0 .96-.17zm-11.37-9.37c.91956-.20729 2.24225-.08279 2.55-.81l.8-1.63.8 1.63c.3089.728 1.629.60214 2.55.81l-1.3 1.26c-.6187.50749-.05058 1.85344.02007 2.66994-.8565-.36892-1.88875-1.27029-2.53005-.84l-1.61.84.31-1.78c.18398-.79046-.98653-1.46675-1.59002-2.14994zm26.94-14.62v10.35a64.15651 64.15651 0 0 1 -12.75 3.96c-.34028-.3782-1.02082-.9035-1.17-1.27a3.35014 3.35014 0 0 1 .08991-1.11992c.5731-2.24028-.4048-3.56874-2.69989-3.7101a3.31052 3.31052 0 0 1 -1.0901-.24998c-.73221-.86532-.962-2.53672-2.33991-2.95994-1.31037-.47254-2.52528.78594-3.63001 1.01994a3.26643 3.26643 0 0 1 -1.07-.43988c-1.98952-1.26531-3.49-.66888-4.35 1.43988a3.36593 3.36593 0 0 1 -.55.94007c-1.05409.43994-2.7178.13774-3.54 1.30993-.86605 1.13878-.04512 2.64347-.16 3.77-.14636.36445-.85555.90073-1.18 1.28a64.41844 64.41844 0 0 1 -12.74-3.97v-10.35a3.12827 3.12827 0 0 1 3.13-3.13h40.92a3.12827 3.12827 0 0 1 3.13 3.13zm-1.62 13.16v21.34a6.0709 6.0709 0 0 1 -6.07 6.06h-31.82a6.06879 6.06879 0 0 1 -6.06-6.06v-21.34c.6664.26351 1.32873.50576 2 .73a63.858 63.858 0 0 0 8.22 2.29c-.02946 1.44462 1.494 2.189 2.09 3.15.115 1.01224-.59261 2.38734-.02007 3.47l-4.26 9.83992a1.00662 1.00662 0 0 0 1.44007 1.25008l4.24-2.58 1.02 4.85993a1.00024 1.00024 0 0 0 1.89.20007l4.09-9.47a4.16175 4.16175 0 0 1 1.27-.55 4.24812 4.24812 0 0 1 1.27.55l4.09 9.47a.99337.99337 0 0 0 1.89-.2l1.02-4.86 4.24 2.58a.99188.99188 0 0 0 1.17-.09 1.01964 1.01964 0 0 0 .27-1.16l-4.26008-9.85c.56309-1.08318-.135-2.44721-.01995-3.46a3.33915 3.33915 0 0 1 .7-.81 3.36735 3.36735 0 0 0 1.38-2.34 65.48 65.48 0 0 0 8.22-2.29c.67135-.22434 1.33412-.4668 2.00003-.73zm-32.61-18.29v-6.05a4.26139 4.26139 0 0 1 4.25-4.26h12.78a4.26139 4.26139 0 0 1 4.25 4.26v6.05c-1.17758.0058-3.88382-.008-5.08 0v-3.87a.99654.99654 0 0 0 -1-1h-9.12a.99654.99654 0 0 0 -1 1v3.87c-1.1972-.00383-3.909.0053-5.08 0z" fill="url(#linear-gradient)"/></svg>