<svg id="Layer_1" enable-background="new 0 0 512 512" viewBox="0 0 512 512" xmlns="http://www.w3.org/2000/svg" xmlns:xlink="http://www.w3.org/1999/xlink"><linearGradient id="SVGID_1_" gradientUnits="userSpaceOnUse" x1="256" x2="256" y1="499.6" y2="12.4"><stop offset="0" stop-color="#7253a2"/><stop offset=".2799" stop-color="#6762ad"/><stop offset=".8188" stop-color="#4b8ac9"/><stop offset="1" stop-color="#4099d4"/></linearGradient><path clip-rule="evenodd" d="m256 333.97c-23.09 0-41.87-18.79-41.87-41.88s18.78-41.88 41.87-41.88 41.88 18.79 41.88 41.88-18.79 41.88-41.88 41.88zm0-93.76c-28.6 0-51.87 23.28-51.87 51.88 0 28.61 23.27 51.88 51.87 51.88 28.61 0 51.88-23.27 51.88-51.88 0-28.6-23.27-51.88-51.88-51.88zm85.73 224.76c-26.46 18.07-65.76 24.63-85.73 24.63-19.96 0-59.27-6.56-85.73-24.63-6.5-4.44-9.7-11.75-8.56-19.55 6.81-46.48 47.35-82.07 94.29-82.81 46.95.74 87.48 36.33 94.3 82.81 1.14 7.8-2.06 15.11-8.57 19.55zm158.97-31.87c-3.16-21.58-13.98-41.5-30.48-56.1-16.64-14.73-37.97-23.03-60.06-23.36-.05 0-.1 0-.15 0-29.13.44-56.05 14.45-73.3 37.82-3.53-4.26-7.38-8.28-11.57-11.99-19.14-16.94-43.66-26.48-69.06-26.86-.05 0-.1 0-.15 0-25.4.38-49.92 9.92-69.06 26.86-4.19 3.71-8.04 7.73-11.57 11.99-17.26-23.37-44.17-37.38-73.31-37.82-.05 0-.1 0-.15 0-22.08.33-43.41 8.63-60.06 23.36-16.49 14.6-27.31 34.52-30.48 56.1-1.51 10.33 2.73 20.02 11.36 25.91 23.02 15.72 57.22 22.89 79.26 22.89 13.82 0 37.06-3.18 58.63-12.01 1.25 1.2 2.6 2.33 4.09 3.34 26.52 18.12 65.95 26.37 91.36 26.37s64.84-8.25 91.37-26.37c1.48-1.01 2.84-2.14 4.08-3.34 21.57 8.83 44.82 12.01 58.64 12.01 22.03 0 56.24-7.17 79.26-22.89 8.62-5.89 12.87-15.58 11.35-25.91zm-90.61-175.18c-25.07 0-45.47 20.39-45.47 45.46s20.4 45.47 45.47 45.47 45.47-20.4 45.47-45.47-20.4-45.46-45.47-45.46zm-308.17 0c-25.07 0-45.47 20.39-45.47 45.46s20.4 45.47 45.47 45.47 45.46-20.4 45.46-45.47-20.39-45.46-45.46-45.46zm-76.13-113.24 39.2 28.36-15.04 45.98c-1.13 3.46.09 7.22 3.04 9.36s6.9 2.14 9.84 0l39.09-28.51 39.08 28.51c1.47 1.07 3.19 1.61 4.92 1.61 1.72 0 3.45-.54 4.92-1.61 2.95-2.14 4.17-5.9 3.05-9.36l-15.04-45.98 39.19-28.36c2.95-2.14 4.18-5.9 3.05-9.36s-4.32-5.79-7.95-5.79c-.01 0-.01 0-.02 0l-48.38.1-14.86-46.04c-1.12-3.47-4.32-5.8-7.96-5.8-3.65 0-6.85 2.33-7.96 5.79l-14.87 46.05-48.38-.1h-.01c-3.64 0-6.83 2.33-7.95 5.79-1.13 3.46.09 7.22 3.04 9.36zm313.08-15.15c-3.63 0-6.83 2.33-7.95 5.79-1.13 3.46.1 7.22 3.04 9.36l39.2 28.36-15.04 45.99c-1.13 3.45.09 7.21 3.04 9.35s6.9 2.14 9.84 0l39.09-28.51 39.09 28.51c1.46 1.07 3.18 1.61 4.91 1.61 1.72 0 3.45-.54 4.92-1.61 2.95-2.14 4.18-5.9 3.05-9.36l-15.04-45.98 39.19-28.36c2.95-2.14 4.18-5.9 3.05-9.36-1.12-3.46-4.32-5.79-7.95-5.79-.01 0-.01 0-.02 0l-48.38.1-14.86-46.04c-1.12-3.47-4.32-5.8-7.96-5.8s-6.84 2.33-7.96 5.79l-14.86 46.05zm-174.58-37.93c-3.2-2.31-4.53-6.4-3.31-10.16 1.23-3.75 4.69-6.28 8.64-6.28h.01l59.46.12 18.27-56.59c1.21-3.76 4.69-6.29 8.64-6.29 3.96 0 7.43 2.53 8.65 6.29l18.26 56.59 59.46-.12h.02c3.94 0 7.41 2.53 8.63 6.28 1.22 3.77-.1 7.85-3.31 10.16l-48.17 34.86 18.49 56.52c1.22 3.75-.11 7.83-3.31 10.16-3.2 2.32-7.49 2.32-10.68 0l-48.04-35.04-48.03 35.04c-1.6 1.16-3.47 1.74-5.34 1.74s-3.74-.58-5.34-1.74c-3.21-2.33-4.54-6.41-3.31-10.16l18.48-56.52z" fill="url(#SVGID_1_)" fill-rule="evenodd"/></svg>