<svg clip-rule="evenodd" fill-rule="evenodd" stroke-linejoin="round" stroke-miterlimit="2" viewBox="0 0 48 48" xmlns="http://www.w3.org/2000/svg"><g transform="translate(-72 -144)"><g id="BLUETONE" transform="scale(1.5)"><g transform="scale(.667)"><path d="m90.807 173.272c.707-.177 1.447-.272 2.209-.272h5.968c.762 0 1.502.095 2.209.272.653-2.459 2.895-4.272 5.561-4.272h4.492c3.178 0 5.754 2.576 5.754 5.754v3.246c0 .53-.211 1.039-.586 1.414s-.884.586-1.414.586h-7.226c.148.648.226 1.323.226 2.016v4.984c0 .53-.211 1.039-.586 1.414s-.884.586-1.414.586h-20c-.53 0-1.039-.211-1.414-.586s-.586-.884-.586-1.414v-4.984c0-.693.078-1.368.226-2.016h-7.226c-.53 0-1.039-.211-1.414-.586s-.586-.884-.586-1.414v-3.246c0-3.178 2.576-5.754 5.754-5.754h4.492c2.666 0 4.908 1.813 5.561 4.272z" fill="#8bc4ff"/></g><g transform="matrix(1.123 0 0 1.222 -116.246 73.556)"><path d="m167.522 38h4.291c.314 0 .616-.115.839-.32.223-.204.348-.482.348-.771v-1.77c0-1.734-1.53-3.139-3.416-3.139h-2.668c-1.582 0-2.914.989-3.302 2.33 1.941.449 3.461 1.872 3.908 3.67z" fill="#d6eaff"/></g><g transform="matrix(1.123 0 0 1.222 -133.579 73.556)"><path d="m172.886 34.33c-.388-1.341-1.72-2.33-3.302-2.33h-2.668c-1.886 0-3.416 1.405-3.416 3.139v1.77c0 .289.125.567.348.771.223.205.525.32.839.32h4.291c.447-1.798 1.967-3.221 3.908-3.67z" fill="#d6eaff"/></g><g transform="matrix(.624 0 0 .624 -40.078 96.332)"><circle cx="166.844" cy="20.844" fill="#8bc4ff" r="5.344"/></g><g transform="matrix(.499 0 0 .499 -10.598 96.932)"><circle cx="166.844" cy="20.844" fill="#d6eaff" r="5.344"/></g><g transform="matrix(.499 0 0 .499 -27.908 96.932)"><circle cx="166.844" cy="20.844" fill="#d6eaff" r="5.344"/></g><g transform="scale(.667)"><path d="m101.212 154.319c-.137.407-.519.681-.948.681-1.838 0-6.69 0-8.528 0-.429 0-.811-.274-.948-.681-.528-1.572-1.788-5.319-1.788-5.319l4 1 3-3 3 3 4-1s-1.26 3.747-1.788 5.319z" fill="#8bc4ff"/></g><g transform="matrix(1.684 0 0 1.778 -219.368 58.444)"><path d="m163.124 35h-2.395c-.315 0-.617-.119-.84-.33-.222-.21-.347-.497-.347-.795v-1.217c0-1.399 1.197-2.533 2.673-2.533h1.778c1.107 0 2.056.637 2.462 1.545.2-.03.405-.045.614-.045h2.362c.209 0 .414.015.614.045.406-.908 1.355-1.545 2.462-1.545h1.778c.284 0 .558.042.815.12.208.063.323.274.256.471-.066.197-.289.306-.497.243-.181-.055-.374-.084-.574-.084h-1.778c-.738 0-1.377.402-1.685.988 1.136.403 2.024 1.285 2.391 2.387h2.558c.105 0 .206-.04.28-.11s.116-.166.116-.265v-1.217c0-.373-.121-.719-.327-1.005-.123-.171-.077-.404.103-.521.181-.117.427-.073.55.098.294.407.465.898.465 1.428v1.217c0 .298-.125.585-.347.795-.223.211-.525.33-.84.33h-2.395c.013.125.02.252.02.381v1.869c0 .298-.125.585-.348.795-.223.211-.525.33-.84.33h-5.146c-.218 0-.395-.168-.395-.375s.177-.375.396-.375h5.145c.105 0 .206-.04.28-.11s.116-.166.116-.265v-1.869c0-.231-.027-.456-.079-.672-.265-1.099-1.166-1.969-2.316-2.243-.249-.06-.51-.091-.778-.091h-2.362c-.268 0-.529.031-.778.091-1.15.274-2.051 1.144-2.316 2.243-.052.216-.079.441-.079.672v1.869c0 .099.042.195.116.265s.175.11.28.11h.396c.218 0 .395.168.395.375s-.177.375-.396.375h-.395c-.315 0-.617-.119-.84-.33-.223-.21-.348-.497-.348-.795v-1.869c0-.129.007-.256.02-.381zm2.554-3.137c-.308-.586-.947-.988-1.685-.988h-1.778c-1.039 0-1.882.798-1.882 1.783v1.217c0 .099.042.195.116.265s.175.11.28.11h2.558c.367-1.102 1.255-1.984 2.391-2.387zm.197 5.762c.218 0 .396.168.396.375s-.178.375-.396.375-.396-.168-.396-.375.178-.375.396-.375zm2.368-11.25c1.311 0 2.375 1.008 2.375 2.25s-1.064 2.25-2.375 2.25-2.375-1.008-2.375-2.25 1.064-2.25 2.375-2.25zm0 .75c-.874 0-1.583.672-1.583 1.5s.709 1.5 1.583 1.5 1.583-.672 1.583-1.5-.709-1.5-1.583-1.5zm5.146-1.5c1.092 0 1.979.84 1.979 1.875s-.887 1.875-1.979 1.875-1.979-.84-1.979-1.875.887-1.875 1.979-1.875zm0 .75c-.656 0-1.188.504-1.188 1.125s.532 1.125 1.188 1.125c.655 0 1.187-.504 1.187-1.125s-.532-1.125-1.187-1.125zm-10.278-.75c1.092 0 1.979.84 1.979 1.875s-.887 1.875-1.979 1.875-1.979-.84-1.979-1.875.887-1.875 1.979-1.875zm0 .75c-.655 0-1.187.504-1.187 1.125s.532 1.125 1.187 1.125c.656 0 1.188-.504 1.188-1.125s-.532-1.125-1.188-1.125zm7.577-1.261c-.108.305-.41.511-.75.511h-3.376c-.34 0-.642-.206-.75-.511l-.708-1.994c-.046-.13-.014-.274.084-.374.099-.101.247-.143.387-.11l1.366.324 1.029-.975c.155-.147.405-.147.56 0 0 0 1.029.975 1.029.975l1.366-.324c.14-.033.288.009.387.11.098.1.13.244.084.374zm-4.126-.239h3.376l.477-1.345-.881.209c-.135.032-.278-.006-.376-.099l-.908-.86-.908.86c-.098.093-.241.131-.376.099l-.881-.209z" fill="#2e58ff"/></g></g></g></svg>